<?xml version="1.0" encoding="utf-8"?>
<!-- Generator: Adobe Illustrator 26.2.1, SVG Export Plug-In . SVG Version: 6.00 Build 0)  -->
<svg version="1.1" id="Camada_1" xmlns="http://www.w3.org/2000/svg" xmlns:xlink="http://www.w3.org/1999/xlink" x="0px" y="0px"
	 viewBox="0 0 1366 768" style="enable-background:new 0 0 1366 768;" xml:space="preserve">
<style type="text/css">
	.st0{fill:#FFFFFF;stroke:#FFFFFF;stroke-miterlimit:10;}
	.st1{fill:#FFFFFF;stroke:#FFFFFF;stroke-width:10;stroke-miterlimit:10;}
</style>
<path id="XMLID_1685_" class="st0" d="M378.9,337v-76c0-17.3,20.3-16.4,24.1-16.4h41.3v-55.4H483v55.4h103.7l16.1-60.8
	c1-3.5,4.2-6.4,8-6.4h144.4c3.9,0,7.1,3,8,6.4l16.1,60.8h183.7c3.9,0,24.1-1,24.1,16.4v76h31.9v-76c0-29.6-23.3-50-56-50H804.6
	l-9.5-35.4c-4.8-17.8-21.2-30.1-39.9-30.1H610.9c-18.8,0-35.1,12.3-39.9,30.1l-9.5,35.4h-48.1V178c0-13.9-8.9-18.1-12.8-19.9
	c-5.1-2.2-9.9-1-14.5-1h-44.8c-4.5,0-9.5-1.2-14.6,0.8c-8.9,3.4-14.2,10.2-14.2,20.2V211h-9.3c-32.7,0-56.1,20.3-56.1,50v76
	L378.9,337L378.9,337z"/>
<path id="XMLID_1684_" class="st0" d="M987,496.6v63.4c0,14.1-12.3,30.7-24.1,30.7H403.2c-11.9,0-24.1-16.6-24.1-30.7v-63.4h-31.9
	v63.4c0,32.4,26,62.6,56.1,62.6h559.7c30.1,0,56-30.1,56-62.6v-63.4H987z"/>
<g>
	<g>
		<path class="st1" d="M824.1,310.6c-2.1-2.8-6.1-3.4-9-1.3s-3.4,6.1-1.3,9c18.4,24.5,28.6,53.5,29.9,83.9H804
			c-3.2-56.3-48.5-101.5-104.8-104.8v-46.2c0-3.5-2.8-6.4-6.4-6.4c-43.7,0-84.8,17-115.8,47.9s-47.9,72-47.9,115.8
			s17,84.8,47.9,115.8c31,31,72,47.9,115.8,47.9c43.7,0,84.8-17,115.8-47.9c31-31,47.9-72,47.9-115.8
			C856.6,372.9,845.4,339,824.1,310.6z M686.5,257.7v39.7c-56.3,3.2-101.5,48.5-104.8,104.8H542C545.3,323.9,608.3,261,686.5,257.7z
			 M686.5,559.3C608.3,556,545.4,493,542.1,415h39.6c3.2,56.3,48.5,101.5,104.8,104.8V559.3z M686.5,452.8c-2.6-0.4-5.3-1-7.8-1.8
			c-3.3-1.1-6.9,0.7-8.1,4c-1.2,3.3,0.7,6.9,4,8.1c3.9,1.3,7.8,2.1,11.8,2.6v41.1c-49.3-3.2-88.7-42.6-91.9-91.9h41.1
			c0.4,3.4,1.1,6.9,2.1,10.2c1,3.4,4.6,5.3,8,4.3s5.3-4.6,4.3-8c-0.6-2.1-1.1-4.4-1.5-6.6h37.9L686.5,452.8L686.5,452.8z
			 M686.5,402.2h-38c1.4-9.3,5.7-18.3,12.7-25.3c7.1-7.1,16.1-11.3,25.3-12.7V402.2L686.5,402.2z M686.5,351.4L686.5,351.4
			c-12.6,1.4-24.7,6.9-34.3,16.5c-9.4,9.3-15.1,21.5-16.6,34.3h-41.1c3.2-49.3,42.6-88.7,91.9-91.9V351.4z M699.3,310.2
			c49.3,3.2,88.7,42.6,91.9,91.9h-41.1c-1.4-12.6-6.9-24.7-16.5-34.3c-9.6-9.6-21.7-15.1-34.3-16.5L699.3,310.2L699.3,310.2z
			 M699.3,364.2c9.2,1.3,18.1,5.5,25.3,12.7c7.1,7.1,11.3,16.1,12.7,25.3h-37.9L699.3,364.2L699.3,364.2z M699.3,415h37.9
			c-1.3,9.2-5.5,18.1-12.7,25.3c-7,7-15.9,11.4-25.3,12.7L699.3,415L699.3,415z M699.3,465.8c12.8-1.5,24.8-7.1,34.3-16.6
			c9.6-9.6,15.1-21.7,16.5-34.3h41.1c-3.2,49.3-42.6,88.7-91.9,91.9L699.3,465.8L699.3,465.8z M699.3,559.3v-39.7
			c56.3-3.2,101.5-48.5,104.8-104.8h39.7C840.4,493.1,777.4,556,699.3,559.3z"/>
	</g>
</g>
</svg>
