<?xml version="1.0" encoding="utf-8"?>
<!-- Generator: Adobe Illustrator 26.2.1, SVG Export Plug-In . SVG Version: 6.00 Build 0)  -->
<svg version="1.1" id="Camada_1" xmlns="http://www.w3.org/2000/svg" xmlns:xlink="http://www.w3.org/1999/xlink" x="0px" y="0px"
	 viewBox="0 0 1366 451.35" style="enable-background:new 0 0 1366 451.35;" xml:space="preserve">
<style type="text/css">
	.st0{stroke:#000000;stroke-miterlimit:10;}
	.st1{stroke:#000000;stroke-width:10;stroke-miterlimit:10;}
	.st2{font-family:'MicrosoftNewTaiLue';}
	.st3{font-size:174.9288px;}
</style>
<g>
	<g>
		<path id="XMLID_1685_" class="st0" d="M334.21,182.36v-69.99c0-15.95,18.67-15.09,22.28-15.09h38.05V46.25h35.57v51.04h95.52
			l14.77-55.95c0.85-3.2,3.81-5.92,7.37-5.92h132.91c3.56,0,6.52,2.73,7.38,5.95l14.76,55.92h169.14c3.61,0,22.17-0.87,22.17,15.09
			v69.99h29.38v-69.99c0-27.31-21.45-46.02-51.56-46.02h-145.8l-8.75-32.6c-4.36-16.44-19.46-27.72-36.71-27.72H547.76
			c-17.26,0-32.35,11.28-36.71,27.71l-8.76,32.62h-44.34V36.07c0-12.81-8.14-16.71-11.73-18.27c-4.68-2.04-9.18-0.93-13.32-0.93
			h-41.21c-4.1,0-8.79-1.1-13.45,0.67c-8.17,3.12-13.09,9.36-13.09,18.52v30.3h-8.66c-30.11,0-51.66,18.72-51.66,46.02v69.99H334.21
			L334.21,182.36z"/>
		<path id="XMLID_1684_" class="st0" d="M894.13,329.3v58.38c0,12.98-11.27,28.23-22.17,28.23H356.48
			c-10.9,0-22.28-15.25-22.28-28.23V329.3h-29.38v58.38c0,29.88,23.98,57.63,51.66,57.63h515.48c27.68,0,51.56-27.75,51.56-57.63
			V329.3H894.13z"/>
		<g>
			<g>
				<path class="st1" d="M744.1,158.04c-1.95-2.6-5.64-3.13-8.24-1.19c-2.6,1.95-3.13,5.64-1.19,8.24
					c16.91,22.59,26.36,49.21,27.51,77.32h-36.57c-2.95-51.84-44.6-93.47-96.42-96.42v-42.58c0-3.25-2.64-5.89-5.89-5.89
					c-40.27,0-78.14,15.68-106.62,44.16s-44.16,66.35-44.16,106.62s15.68,78.14,44.16,106.62c28.48,28.48,66.35,44.16,106.62,44.16
					s78.14-15.68,106.62-44.16s44.16-66.35,44.16-106.62C774.09,215.47,763.72,184.25,744.1,158.04z M617.41,109.43v36.56
					c-51.84,2.95-93.47,44.6-96.42,96.42h-36.56C487.45,170.43,545.45,112.44,617.41,109.43z M617.41,387.17
					c-71.97-3.02-129.97-61.02-132.98-132.98h36.56c2.95,51.84,44.6,93.47,96.42,96.42V387.17z M617.41,289.12
					c-2.39-0.35-4.78-0.91-7.13-1.69c-3.09-1.02-6.41,0.64-7.45,3.74c-1.02,3.09,0.64,6.42,3.74,7.45
					c3.57,1.19,7.21,1.98,10.84,2.39v37.81c-45.34-2.92-81.7-39.29-84.63-84.63h37.83c0.35,3.17,0.99,6.33,1.94,9.45
					c0.93,3.11,4.22,4.88,7.34,3.94c3.11-0.93,4.88-4.22,3.94-7.34c-0.6-2-1.04-4.02-1.34-6.05h34.92L617.41,289.12L617.41,289.12z
					 M617.41,242.41h-34.92c1.25-8.66,5.24-16.85,11.66-23.26c6.54-6.54,14.75-10.41,23.27-11.64L617.41,242.41L617.41,242.41z
					 M617.41,195.65L617.41,195.65c-11.55,1.28-22.76,6.33-31.6,15.16c-8.66,8.66-13.89,19.85-15.2,31.59h-37.81
					c2.92-45.34,39.29-81.7,84.63-84.63L617.41,195.65L617.41,195.65z M629.2,157.79c45.34,2.92,81.7,39.29,84.63,84.63h-37.86
					c-1.28-11.55-6.33-22.76-15.16-31.59c-8.84-8.84-20.04-13.88-31.59-15.16L629.2,157.79L629.2,157.79z M629.19,207.51
					c8.52,1.22,16.72,5.1,23.26,11.64s10.41,14.75,11.64,23.26h-34.9L629.19,207.51L629.19,207.51z M629.19,254.19h34.9
					c-1.22,8.52-5.1,16.73-11.64,23.27c-6.45,6.45-14.63,10.44-23.26,11.68L629.19,254.19L629.19,254.19z M629.19,301.02
					c11.73-1.29,22.87-6.51,31.59-15.22c8.84-8.84,13.88-20.05,15.16-31.6h37.86c-2.92,45.34-39.29,81.7-84.63,84.63L629.19,301.02
					L629.19,301.02z M629.19,387.17v-36.56c51.84-2.95,93.47-44.6,96.42-96.42h36.56C759.16,326.16,701.17,384.15,629.19,387.17z"/>
			</g>
		</g>
	</g>
	<text transform="matrix(1 0 0 1 789.6521 317.9998)" class="st2 st3">RADAR</text>
	<text transform="matrix(1 0 0 1 9.4133 320.6814)" class="st2 st3">FOTO</text>
</g>
</svg>
