<?xml version="1.0" encoding="utf-8"?>
<!-- Generator: Adobe Illustrator 26.2.1, SVG Export Plug-In . SVG Version: 6.00 Build 0)  -->
<svg version="1.1" id="Camada_1" xmlns="http://www.w3.org/2000/svg" xmlns:xlink="http://www.w3.org/1999/xlink" x="0px" y="0px"
	 viewBox="0 0 1366 768" style="enable-background:new 0 0 1366 768;" xml:space="preserve">
<style type="text/css">
	.st0{stroke:#000000;stroke-miterlimit:10;}
	.st1{stroke:#000000;stroke-width:10;stroke-miterlimit:10;}
</style>
<path id="XMLID_1685_" class="st0" d="M173.83,308.28V185.92c0-27.89,32.64-26.37,38.95-26.37h66.52V70.31h62.2v89.24h167
	l25.83-97.82c1.48-5.59,6.66-10.35,12.88-10.35h232.37c6.22,0,11.4,4.76,12.89,10.39l25.82,97.78H1114
	c6.31,0,38.76-1.52,38.76,26.37v122.36h51.38V185.92c0-47.74-37.51-80.46-90.15-80.46H859.06l-15.3-56.99
	C836.14,19.73,809.74,0,779.57,0H547.2c-30.17,0-56.57,19.73-64.18,48.44l-15.31,57.03h-77.54V52.51c0-22.39-14.22-29.22-20.5-31.94
	c-8.19-3.57-16.05-1.63-23.3-1.63h-72.05c-7.16,0-15.37-1.93-23.51,1.18c-14.28,5.47-22.89,16.37-22.89,32.39v52.96h-15.14
	c-52.64,0-90.33,32.72-90.33,80.46v122.36L173.83,308.28L173.83,308.28z"/>
<path id="XMLID_1684_" class="st0" d="M1152.76,565.18v102.07c0,22.7-19.71,49.37-38.76,49.37H212.78
	c-19.06,0-38.95-26.67-38.95-49.37V565.18h-51.38v102.07c0,52.24,41.93,100.75,90.33,100.75H1114c48.39,0,90.15-48.51,90.15-100.75
	V565.18H1152.76z"/>
<g>
	<g>
		<path class="st1" d="M890.46,265.76c-3.41-4.55-9.86-5.48-14.41-2.08c-4.55,3.41-5.48,9.86-2.08,14.41
			c29.56,39.49,46.08,86.03,48.11,135.17h-63.93c-5.16-90.62-77.96-163.42-168.58-168.58v-74.45c0-5.69-4.61-10.3-10.3-10.3
			c-70.42,0-136.62,27.42-186.41,77.21s-77.21,116-77.21,186.41s27.42,136.62,77.21,186.41s116,77.21,186.41,77.21
			s136.62-27.42,186.41-77.21c49.79-49.79,77.21-116,77.21-186.41C942.89,366.16,924.76,311.59,890.46,265.76z M668.97,180.76v63.92
			c-90.62,5.16-163.42,77.96-168.58,168.58h-63.92C441.74,287.43,543.14,186.04,668.97,180.76z M668.97,666.36
			c-125.83-5.27-227.23-106.67-232.5-232.5h63.92c5.16,90.62,77.96,163.42,168.58,168.58V666.36z M668.97,494.93
			c-4.18-0.61-8.36-1.6-12.47-2.96c-5.4-1.79-11.22,1.13-13.02,6.53c-1.79,5.4,1.13,11.23,6.53,13.02
			c6.25,2.08,12.61,3.46,18.96,4.18v66.11c-79.26-5.11-142.84-68.69-147.95-147.95h66.14c0.62,5.54,1.73,11.06,3.38,16.52
			c1.64,5.45,7.39,8.53,12.83,6.89c5.45-1.64,8.53-7.39,6.89-12.83c-1.05-3.5-1.82-7.03-2.34-10.58h61.05L668.97,494.93
			L668.97,494.93z M668.97,413.26h-61.06c2.18-15.14,9.16-29.46,20.38-40.67c11.43-11.43,25.79-18.21,40.68-20.35V413.26z
			 M668.97,331.52L668.97,331.52c-20.2,2.24-39.79,11.06-55.25,26.51c-15.15,15.15-24.29,34.69-26.58,55.24h-66.12
			c5.11-79.26,68.69-142.84,147.95-147.95V331.52z M689.57,265.32c79.26,5.11,142.84,68.69,147.95,147.95h-66.2
			c-2.24-20.19-11.06-39.79-26.51-55.24c-15.45-15.45-35.04-24.27-55.24-26.51V265.32L689.57,265.32z M689.56,352.25
			c14.89,2.13,29.24,8.91,40.67,20.35c11.43,11.43,18.21,25.78,20.35,40.67h-61.02L689.56,352.25L689.56,352.25z M689.56,433.86
			h61.02c-2.13,14.89-8.91,29.25-20.35,40.68c-11.29,11.29-25.57,18.26-40.67,20.42L689.56,433.86L689.56,433.86z M689.56,515.73
			c20.5-2.26,39.99-11.38,55.24-26.62c15.45-15.45,24.27-35.05,26.51-55.25h66.2c-5.11,79.26-68.69,142.84-147.95,147.95V515.73z
			 M689.56,666.36v-63.92c90.62-5.16,163.42-77.96,168.58-168.58h63.92C916.79,559.69,815.4,661.09,689.56,666.36z"/>
	</g>
</g>
</svg>
